# xmcd CD Database Entry
#
# Track frame offsets:
# 180
# 13598
# 18673
# 26787
# 40365
# 46769
# 58368
# 66844
# 81419
# 92601
# 102043
# 113406
# 124257
# 131674
# 136840
# 146976
# 157588
# 172371
# 182042
# 189588
# 203614
# 214744
# 227317
# 238239
# 247054
# 254502
# 262325
# 277971
# 284441
# 297409
#
# Disc length: 4180 seconds
#
# Revision: 2
# Processed by: cddbd v1.4PL0 Copyright (c) Steve Scherf et al.
# Submitted via: tcd 2.0b
#
DISCID=ca10521e
DTITLE=Various Bands - Punk Bites 2
DYEAR=1900
DGENRE=
TTITLE0=Bickley - Calling All Punks
TTITLE1=NOFX - Two On Glue
TTITLE2=Pulley - Simpley-Fy
TTITLE3=30footFALL - Subhumanitarian HomeWrecked Blues
TTITLE4=PENNYWISE - Gimmie, Gimmie, Gimmie
TTITLE5=BIGWIG - Falling Down
TTITLE6=DISCOUNT - On The Counter
TTITLE7=GOB - Self Appointed Leader
TTITLE8=MXPX - GSF
TTITLE9=STRUNG OUT - Just Like Me
TTITLE10=THE DRAPES - Basement Diaries
TTITLE11=STRAIGHT FACED - Revolve
TTITLE12=SLICK SHOES - My So Called Real World
TTITLE13=BACKSIDE - 7 Minutes
TTITLE14=WHITEKAPS - Police Truck
TTITLE15=WHIPPERSNAPPER - Holiday Road
TTITLE16=HOMEGROWN - More Than Friends
TTITLE17=98 MUTE - Another Boring Day
TTITLE18=QUINCY PUNX - Nutso Smasho
TTITLE19=DYNAMITE BOY - Charmed (...I'm Sure)
TTITLE20=APOCALYPSE HOBOKEN - Pulling Worms Apart
TTITLE21=CHUCK - P.O.C.
TTITLE22=SAM THE BUTCHER - Excuses
TTITLE23=ASSORTED JELLYBEANS - Bruce Wayne
TTITLE24=THE CROWD - Go To The Dentist
TTITLE25=KRHISSY - Feel Better Today
TTITLE26=HORACE PINKER - Just Around The Corner
TTITLE27=BALLGAGGER - Detroit
TTITLE28=BOREDOM - Dumb As Rocks
TTITLE29=THE OUTSIDE - Fit
EXTD=
EXTT0=
EXTT1=
EXTT2=
EXTT3=
EXTT4=
EXTT5=
EXTT6=
EXTT7=
EXTT8=
EXTT9=
EXTT10=
EXTT11=
EXTT12=
EXTT13=
EXTT14=
EXTT15=
EXTT16=
EXTT17=
EXTT18=
EXTT19=
EXTT20=
EXTT21=
EXTT22=
EXTT23=
EXTT24=
EXTT25=
EXTT26=
EXTT27=
EXTT28=
EXTT29=
PLAYORDER=
